# xmcd
#
# Track frame offsets:
#	150
#	18510
#	35292
#	54555
#	78107
#	97455
#	114770
#	129645
#	153197
#	172217
#	194375
#
# Disc length: 2801 seconds
#
# Revision: 1
# Processed by: cddbd v1.4PL0 Copyright (c) Steve Scherf et al.
# Submitted via: audiograbber 1.82.02
#
DISCID=8b0aef0b
DTITLE=Andrew Ironside - Movers and Shakers
DYEAR=1900
DGENRE=
TTITLE0=Movers and Shakers
TTITLE1=You Make Me Want to Dance
TTITLE2=The River Is Rising
TTITLE3=I Will Praise Him
TTITLE4=God Said
TTITLE5=God is Building His Church
TTITLE6=Its In My Spirit
TTITLE7=In Your Secret Place
TTITLE8=The Blood Song
TTITLE9=Be Exalted Jesus
TTITLE10=God is Building his Church (Remix)
EXTD=
EXTT0=
EXTT1=
EXTT2=
EXTT3=
EXTT4=
EXTT5=
EXTT6=
EXTT7=
EXTT8=
EXTT9=
EXTT10=
PLAYORDER=
